<svg height="512pt" viewBox="0 0 512 512" width="512pt" xmlns="http://www.w3.org/2000/svg"><path d="m482 91v281.398438h-452v-281.398438c2.402344 1.199219 33.101562-17.402344 52.597656-30h371.203125zm0 0" fill="#deecf1"/><path d="m482 91v281.398438h-226v-311.398438h197.800781zm0 0" fill="#c6e2e7"/><path d="m298.597656 144.398438-42.597656 63.902343-17.402344 26.097657c-2.699218 3.601562-6.597656 6-11.097656 6.601562-4.5.300781-9-1.199219-12-4.5l-17.101562-17.101562-34.199219 51.601562-15.601563 23.398438c-2.996094 4.199218-7.796875 6.601562-12.597656 6.601562-3 0-5.699219-.902344-8.402344-2.402344-6.898437-4.796875-8.699218-14.097656-4.199218-21l4.5-6.597656 55.5-83.402344c2.699218-3.597656 6.601562-6 11.101562-6.597656 4.5-.300781 9 1.199219 12 4.5l17.097656 17.097656 32.402344-48.898437 17.402344-26.101563c4.796875-6.898437 14.097656-8.699218 21-4.199218 6.898437 4.800781 8.699218 14.101562 4.195312 21zm0 0" fill="#e63950"/><g fill="#cc2e43"><path d="m407 181h-61c-8.289062 0-15-6.710938-15-15s6.710938-15 15-15h61c8.289062 0 15 6.710938 15 15s-6.710938 15-15 15zm0 0"/><path d="m407 241h-61c-8.289062 0-15-6.710938-15-15s6.710938-15 15-15h61c8.289062 0 15 6.710938 15 15s-6.710938 15-15 15zm0 0"/><path d="m407 301h-61c-8.289062 0-15-6.710938-15-15s6.710938-15 15-15h61c8.289062 0 15 6.710938 15 15s-6.710938 15-15 15zm0 0"/></g><path d="m30 20.097656h452v70.902344h-452zm0 0" fill="#c6e2e7"/><path d="m271 376v58.597656h-30v-58.597656c0-8.402344 6.597656-15 15-15s15 6.597656 15 15zm0 0" fill="#465a61"/><path d="m271 376v58.597656h-15v-73.597656c8.402344 0 15 6.597656 15 15zm0 0" fill="#3b4a51"/><path d="m298.597656 144.398438-42.597656 63.902343v-54.601562l17.402344-26.101563c4.796875-6.898437 14.097656-8.699218 21-4.199218 6.898437 4.800781 8.699218 14.101562 4.195312 21zm0 0" fill="#cc2e43"/><path d="m256 20.097656h226v70.902344h-226zm0 0" fill="#a8d3d8"/><path d="m512 15c0 8.398438-6.597656 15-15 15h-482c-8.402344 0-15-6.601562-15-15 0-8.402344 6.597656-15 15-15h482c8.402344 0 15 6.597656 15 15zm0 0" fill="#697c86"/><path d="m512 376c0 8.398438-6.597656 15-15 15h-482c-8.402344 0-15-6.601562-15-15 0-8.402344 6.597656-15 15-15h482c8.402344 0 15 6.597656 15 15zm0 0" fill="#697c86"/><path d="m512 376c0 8.398438-6.597656 15-15 15h-241v-30h241c8.402344 0 15 6.597656 15 15zm0 0" fill="#596c76"/><path d="m497 30h-241v-30h241c8.402344 0 15 6.597656 15 15 0 8.398438-6.597656 15-15 15zm0 0" fill="#596c76"/><path d="m136 331c-8.289062 0-15-6.710938-15-15v-180c0-8.289062 6.710938-15 15-15s15 6.710938 15 15v180c0 8.289062-6.710938 15-15 15zm0 0" fill="#465a61"/><path d="m301 286c0 8.398438-6.597656 15-15 15h-180c-8.402344 0-15-6.601562-15-15 0-8.402344 6.597656-15 15-15h180c8.402344 0 15 6.597656 15 15zm0 0" fill="#465a61"/><path d="m301 286c0 8.398438-6.597656 15-15 15h-30v-30h30c8.402344 0 15 6.597656 15 15zm0 0" fill="#3b4a51"/><path d="m256 422c-24.902344 0-45 20.097656-45 45 0 24.898438 20.097656 45 45 45s45-20.101562 45-45c0-24.902344-20.097656-45-45-45zm0 60c-8.402344 0-15-6.601562-15-15 0-8.402344 6.597656-15 15-15s15 6.597656 15 15c0 8.398438-6.597656 15-15 15zm0 0" fill="#697c86"/><path d="m301 467c0 24.898438-20.097656 45-45 45v-30c8.402344 0 15-6.601562 15-15 0-8.402344-6.597656-15-15-15v-30c24.902344 0 45 20.097656 45 45zm0 0" fill="#596c76"/></svg>