<?xml version="1.0" encoding="iso-8859-1"?>
<!-- Generator: Adobe Illustrator 19.0.0, SVG Export Plug-In . SVG Version: 6.00 Build 0)  -->
<svg version="1.1" id="Capa_1" xmlns="http://www.w3.org/2000/svg" xmlns:xlink="http://www.w3.org/1999/xlink" x="0px" y="0px"
	 viewBox="0 0 512 512" style="enable-background:new 0 0 512 512;" xml:space="preserve">
<g transform="translate(1 1)">
	<path style="fill:#FFE100;" d="M400.085,502.498h-290.17c-56.557,0-102.413-45.856-102.413-102.413v-290.17
		c0-56.557,45.856-102.413,102.413-102.413h290.17c56.557,0,102.413,45.856,102.413,102.413v290.17
		C502.498,456.643,456.644,502.498,400.085,502.498"/>
	<path style="fill:#FFA800;" d="M400.085,7.501h-25.603c56.557,0,102.413,45.856,102.413,102.413v290.17
		c0,56.557-45.856,102.413-102.413,102.413h25.603c56.557,0,102.413-45.856,102.413-102.413v-290.17
		C502.498,53.357,456.644,7.501,400.085,7.501"/>
	<path style="fill:#FFFFFF;" d="M109.915,7.501h25.603c-56.557,0-102.413,45.847-102.413,102.413v290.17
		c0,56.557,45.856,102.413,102.413,102.413h-25.603c-56.557,0-102.413-45.856-102.413-102.413v-290.17
		C7.502,53.348,53.358,7.501,109.915,7.501"/>
	<path d="M400.085,511h-290.17C48.757,511-0.999,461.244-0.999,400.086V109.914C-0.999,48.756,48.757-1,109.915-1h290.17
		C461.243-1,511,48.756,511,109.914v290.17C511.001,461.244,461.244,511,400.085,511z M109.915,16.002
		c-51.783,0-93.912,42.129-93.912,93.912v290.17c0,51.784,42.129,93.912,93.912,93.912h290.17c51.784,0,93.912-42.128,93.912-93.912
		v-290.17c0-51.783-42.128-93.912-93.912-93.912H109.915z"/>
	<path d="M348.879,246.432H246.465c-4.695,0-8.501-3.806-8.501-8.501c0-4.695,3.806-8.501,8.501-8.501h102.413
		c4.695,0,8.501,3.806,8.501,8.501C357.38,242.625,353.573,246.432,348.879,246.432z"/>
	<path d="M348.879,280.569H246.465c-4.695,0-8.501-3.806-8.501-8.501s3.806-8.501,8.501-8.501h102.413
		c4.695,0,8.501,3.806,8.501,8.501S353.573,280.569,348.879,280.569z"/>
	<path d="M229.4,340.311c-2.342,0-4.675-0.963-6.355-2.851l-68.276-76.75c-2.863-3.218-2.866-8.07-0.008-11.292l68.199-76.87
		c3.117-3.512,8.49-3.833,12.002-0.717c3.512,3.116,3.833,8.489,0.717,12.002l-63.187,71.22l63.256,71.108
		c3.121,3.508,2.807,8.881-0.701,12.002C233.428,339.602,231.409,340.311,229.4,340.311z"/>
</g>
<g>
</g>
<g>
</g>
<g>
</g>
<g>
</g>
<g>
</g>
<g>
</g>
<g>
</g>
<g>
</g>
<g>
</g>
<g>
</g>
<g>
</g>
<g>
</g>
<g>
</g>
<g>
</g>
<g>
</g>
</svg>
